
        <svg xmlns="http://www.w3.org/2000/svg" xmlns:xlink="http://www.w3.org/1999/xlink" version="1.1" width="3171.4285714285716" 
        height="1411.144872327154" viewBox="0 0 3171.4285714285716 1411.144872327154">
			
			<g transform="scale(8.571428571428571) translate(10, 10)">
				<defs id="SvgjsDefs1245"></defs><g id="SvgjsG1246" featureKey="mugSzh-0" transform="matrix(1.607728400663502,0,0,1.607728400663502,96.19627474885132,-36.28127472824444)" fill="#39e991"><g xmlns="http://www.w3.org/2000/svg"><path fill="#39e991" d="M15.1,65.9c0,0-3.5-3-4.4-8c-0.9-5,0.9-8.4,1.4-9.6c0.5-1.3,1.2-3.2,1.4-3.9s0.3-1.3,1.1-1.4   c0.8-0.1,1.5,1,2,2.2c0.5,1.3,1.9,4.4,1.4,9c-0.4,3.6-1.1,4.4-1.7,7.1c-0.6,2.7-0.6,3.5-0.2,4.4C16.4,66.5,15.1,66.1,15.1,65.9z"></path><path fill="#39e991" d="M17.7,58.9c0,0,0.2-0.7,0.4-1.4c0.2-0.7,0.3-1.2,0.3-1.2s2.1-2.1,4.9-3.7c2.8-1.6,6.2-3.1,6.2-3.1   s1.5-0.8,2.3-1.3c0.8-0.5,1.9-0.9,2.8-1.6s2.9-2.3,2.9-2.3s-0.1,0.7,0,1.1c0.1,0.5,0.3,0.8,0.3,0.8s-2.5,1.1-3.2,1.6   c-0.7,0.5-1,0.7-1,0.7s1.6,0,2.9,0c1.2,0,3.4,0.3,3.4,0.3s-0.6,0.3-1.1,0.7c-0.4,0.3-0.7,0.7-0.7,0.7s-1.5,0-2.8,0   c-1.2,0-3.2,0.2-4.1,0.4c-1,0.2-4.3,1.7-5.4,2.3s-3.9,2.6-4.8,3.2S17.7,58.9,17.7,58.9z"></path><path fill="#39e991" d="M22.2,57.7c-0.7-0.1-1.1-0.6-0.3-1c0.8-0.4,4.9-1.7,8.9-0.3s5,3.8,7.1,5.3c0.9,0.7,1.6,0.9,1.5,1.5   c-0.1,0.7-1.9,1.1-4.9,0.7c-3.4-0.5-6.4-1.6-8.9-4.1C23.8,58.1,22.7,57.8,22.2,57.7z"></path><path fill="#39e991" d="M19,52.6c0-0.9-0.1-3.1-1.3-6.3c-1.3-3.1-1.7-5.5-1.7-7.2c0-4.1,0.4-7.9,0.1-9.4c-0.2-0.9,0-3,1.5-1.7   c1.8,1.6,4.2,6.4,4.5,9.2c0.3,3-0.8,8-1.1,10c-0.3,2-0.6,4.2-0.6,5.1c0,0.6-0.4,1.4-0.8,1.2C19.3,53.6,19,53.3,19,52.6z"></path><path fill="#39e991" d="M23.2,43.3c0.5-4,1.4-8.3,2-12.4s0.1-6.1,0-6.8s-0.1-2.3,1.7-1.1c1.8,1.2,3.6,6.5,3.6,9.8   c0,3.4-1.6,9.3-3,11.4c-0.7,1.1-1.4,3-1.7,4.5c-0.2,0.9-0.2,1.7-0.4,1.8C24.7,50.6,22.8,46.6,23.2,43.3z"></path><path fill="#39e991" d="M29.7,48c-1.4-0.6-0.6-5.2,0-7.4c2-7.7,6.2-9.8,6.3-16.5c0-1.7,1.1-1.6,2.4,0.2c1.5,2,1.9,9.5,0.1,13.9   C35.9,44.3,31.4,48.7,29.7,48z"></path><path fill="#39e991" d="M43.5,36.9c0,0,1.5,0.2,2.2,1.7c0.7,1.5,0.7,3.9,0.7,3.9s0.1,0.3,0.5-0.1c0.3-0.3,1.4-1.7,2.5-2.7   c1.3-1.2,5-3.6,6.2-6.3c1.6-3.6,2.1-7.3,0-6.2c-2.2,1.1-3.8,3.3-6.8,4.9C44.6,34.1,43.5,36.9,43.5,36.9z"></path><path fill="#39e991" d="M46,44.8l0.3-1.5c0,0,0.3,0.3,2.1-0.2s3.1-0.9,4.7-2.7c1.6-1.8,3.5-5.2,6.1-6.7c2.6-1.5,11.7-4.7,12.4-3.7   c0.7,1-0.6,3-1.6,4.1s-5.7,5.8-8.4,6.4c-2.7,0.7-7.1,0.1-8.3,0.8s-3,1.9-3,1.9s5,0,6.4,0s2.4-0.1,4.8-1c2.4-0.9,4.7-2,6.3-3.1   s6.9-3.9,11-4.1c4.2-0.2,6.4,0.1,8,0c1.6,0,2,1.2,0.3,2.2c-1.7,1.1-7.4,5.2-11.9,5.8c-4.5,0.6-10.4-0.4-12.3-0.5   c-1.9,0-4.4,1.1-4.4,1.3c0,0.2,2.2,1.5,7.1,2c3.1,0.3,6.4,1.7,8.3,3c1.9,1.3,6.2,4.7,6.8,5.3c0.6,0.6,1.8,2.2-0.4,2.3   s-9.1-2-12.2-4.4c-3.1-2.4-3.7-2.6-4.8-3.8c-1.1-1.1-2.4-3.3-4.9-3.8c-2.5-0.6-8.3-0.6-8.3-0.6s4.9,1.4,6.4,2.3   c1.6,0.9,7.9,5,10.7,9.3s3.2,6.4,3.1,7.5s-0.4,1.9-3.4,0.3s-6.3-3.5-8.2-6.1c-1.9-2.6-2.8-4.8-3.8-7.7c-1-2.8-1-4.2-4.6-5   C48,43.9,46,44.8,46,44.8z"></path><path fill="#39e991" d="M45.7,40.7c-0.3-3.1-2.7-4.1-5.5-2.5S37.8,43.7,38,45c0.3,2.3,2.5,3.6,4.8,3.1C45.2,47.5,46,43.8,45.7,40.7   z M43.1,38.7c-0.8-0.1-1.8,0.2-1.8,0.2s1-1,1.9-0.7c1,0.3,1.3,1.3,1.3,1.3S43.8,38.8,43.1,38.7z"></path><path fill="#39e991" d="M45.3,50.9c-1.1-1.5-3.6-2.7-6.3-0.7c-2.7,2-1.9,5.1-1.6,6.3c0.5,2,2.7,5.8,7.5,4   C48,59.3,46.7,52.7,45.3,50.9z M42.3,50.4c-0.8-0.1-1.8,0.2-1.8,0.2s1-1,1.9-0.7c1,0.3,1.3,1.3,1.3,1.3S43,50.5,42.3,50.4z"></path><path fill="#39e991" d="M50.3,47.8c-2.7-0.7-5.1,0.1-6,1.3c0,0,1.1,0.4,1.8,1.9c0.7,1.4,1.2,2.9,1.2,4.1c0,0.9,0.1,1,0.1,1   s3,2.8,6.3-0.3C56,53.6,54,48.8,50.3,47.8z M49.4,48.5c-0.8-0.3-2-0.3-2-0.3s1.2-0.5,2.1-0.2c1,0.4,1.3,1.3,1.3,1.3   S50.1,48.7,49.4,48.5z"></path><path fill="#39e991" d="M37.4,45.2"></path></g></g><g id="SvgjsG1247" featureKey="PPkF4s-0" transform="matrix(2.2703683944321655,0,0,2.2703683944321655,-1.8617013905729272,79.51089827754643)" fill="#ffffff"><path d="M4.74 19.26 q-1.8 -1.02 -2.86 -2.77 t-1.06 -3.81 q0 -2.04 1.06 -3.79 t2.86 -2.77 t3.94 -1.02 t3.96 1.02 t2.88 2.77 t1.06 3.79 q0 2.06 -1.06 3.81 t-2.88 2.77 t-3.96 1.02 t-3.94 -1.02 z M6.32 8.63 q-1.08 0.65 -1.72 1.73 t-0.64 2.32 t0.64 2.33 t1.72 1.75 t2.36 0.66 t2.37 -0.66 t1.72 -1.75 t0.63 -2.33 t-0.63 -2.32 t-1.72 -1.73 t-2.37 -0.65 t-2.36 0.65 z M19 4.880000000000001 l3 0 l0 15.12 l-3 0 l0 -15.12 z M27.66 7.369999999999999 q-0.48 0.47 -1.16 0.47 q-0.7 0 -1.19 -0.47 t-0.49 -1.15 q0 -0.66 0.49 -1.13 t1.19 -0.47 q0.68 0 1.16 0.47 t0.48 1.13 q0 0.68 -0.48 1.15 z M25 9.02 l3 0 l0 10.98 l-3 0 l0 -10.98 z M29.560000000000002 9.04 l3.32 0 l2.56 5.38 l2.56 -5.38 l3.34 0 l-5.9 11.44 z M45.29 19.74 q-1.37 -0.54 -2.35 -1.83 t-0.98 -3.37 t0.99 -3.36 t2.37 -1.82 t2.62 -0.54 q1.44 0 2.74 0.64 t2.13 1.88 t0.87 2.94 q0 0.52 -0.02 0.9 t-0.04 0.48 l-8.68 0 q0.24 1.16 1.2 1.58 t1.8 0.42 q1.08 0 1.72 -0.39 t1.1 -0.89 l2.32 1.34 q-1.88 2.56 -5.14 2.56 q-1.28 0 -2.65 -0.54 z M45.9 12.05 q-0.78 0.61 -0.88 1.49 l5.5 0 q-0.06 -0.52 -0.4 -1 t-0.91 -0.79 t-1.29 -0.31 q-1.24 0 -2.02 0.61 z M68.67999999999999 4.92 l8.02 15.08 l-3.46 0 l-1.16 -2.24 l-6.82 0 l-1.12 2.24 l-3.48 0 z M70.56 15.059999999999999 l-1.88 -3.82 l-1.86 3.82 l3.74 0 z M85.82 18.9 q-0.38 0.52 -1.31 0.93 t-2.03 0.41 q-1.7 0 -2.95 -0.76 t-1.91 -2.07 t-0.66 -2.91 t0.66 -2.91 t1.91 -2.07 t2.95 -0.76 q1.14 0 2.01 0.39 t1.33 0.99 l0 -5.26 l2.96 0 l0 15.12 l-2.96 0 l0 -1.1 z M85.11999999999999 12.25 q-0.82 -0.87 -2.2 -0.87 q-1.4 0 -2.21 0.87 t-0.81 2.25 q0 1.34 0.83 2.22 t2.19 0.88 q1.4 0 2.21 -0.83 t0.81 -2.27 q0 -1.38 -0.82 -2.25 z M90.34 9.04 l3.32 0 l2.56 5.38 l2.56 -5.38 l3.34 0 l-5.9 11.44 z M111.7 18.9 q-0.38 0.52 -1.31 0.93 t-2.03 0.41 q-1.7 0 -2.95 -0.76 t-1.91 -2.07 t-0.66 -2.91 t0.66 -2.91 t1.91 -2.07 t2.95 -0.76 q1.14 0 2.01 0.39 t1.33 0.99 l0 -1.14 l2.96 0 l0 11 l-2.96 0 l0 -1.1 z M111 12.25 q-0.82 -0.87 -2.2 -0.87 q-1.4 0 -2.21 0.87 t-0.81 2.25 q0 1.34 0.83 2.22 t2.19 0.88 q1.4 0 2.21 -0.83 t0.81 -2.27 q0 -1.38 -0.82 -2.25 z M126.83000000000001 10.02 q1.03 1.22 1.03 3.48 l0 6.5 l-3.06 0 l0 -6.5 q0 -2.22 -2.12 -2.22 q-0.82 0 -1.48 0.65 t-0.62 2.25 l0 5.82 l-2.98 0 l0 -11 l2.98 0 l0 0.98 q0.54 -0.54 1.36 -0.86 t1.58 -0.32 q2.28 0 3.31 1.22 z M133.26000000000002 19.51 q-1.38 -0.77 -2.19 -2.09 t-0.81 -2.88 t0.81 -2.87 t2.18 -2.08 t2.99 -0.77 q1.74 0 3.15 0.83 t2.25 2.37 l-2.7 1.06 q-0.48 -0.82 -1.18 -1.23 t-1.52 -0.41 q-1.3 0 -2.15 0.88 t-0.85 2.22 t0.86 2.22 t2.16 0.88 q1.8 0 2.78 -1.6 l2.54 1 q-1.58 3.24 -5.32 3.24 q-1.62 0 -3 -0.77 z M146.59 19.74 q-1.37 -0.54 -2.35 -1.83 t-0.98 -3.37 t0.99 -3.36 t2.37 -1.82 t2.62 -0.54 q1.44 0 2.74 0.64 t2.13 1.88 t0.87 2.94 q0 0.52 -0.02 0.9 t-0.04 0.48 l-8.68 0 q0.24 1.16 1.2 1.58 t1.8 0.42 q1.08 0 1.72 -0.39 t1.1 -0.89 l2.32 1.34 q-1.88 2.56 -5.14 2.56 q-1.28 0 -2.65 -0.54 z M147.20000000000002 12.05 q-0.78 0.61 -0.88 1.49 l5.5 0 q-0.06 -0.52 -0.4 -1 t-0.91 -0.79 t-1.29 -0.31 q-1.24 0 -2.02 0.61 z"></path></g><g id="SvgjsG1248" featureKey="uwAHB0-0" transform="matrix(0.5802051191638101,0,0,0.5802051191638101,34.941978990089574,132.82059185786372)" fill="#39e991"><path d="M3.6 15.04 l6.5 0 l-3.2 -7.76 z M7.64 5.84 l5.96 14.16 l-1.48 0 l-1.54 -3.76 l-7.5 0 l-1.6 3.76 l-1.38 0 l6.18 -14.16 l1.36 0 z M27.628 5.84 l0 12.96 l6.6 0 l0 1.2 l-7.92 0 l0 -14.16 l1.32 0 z M48.296 5.84 l0 12.96 l6.6 0 l0 1.2 l-7.92 0 l0 -14.16 l1.32 0 z M83.032 5.84 l4.28 6.72 l4.38 -6.72 l1.48 0 l-5.2 8.06 l0 6.1 l-1.32 0 l0 -6.1 l-5.2 -8.06 l1.58 0 z M106.06 12.92 q0 2.7 1.66 4.45 t4.34 1.79 q2.7 0 4.34 -1.77 t1.66 -4.47 q0 -2.74 -1.64 -4.47 t-4.38 -1.77 q-2.68 0 -4.32 1.76 t-1.66 4.48 z M112.06 5.48 q2.16 0 3.82 0.95 t2.57 2.66 t0.93 3.83 q0 3.26 -2.06 5.33 t-5.26 2.11 q-3.22 0 -5.24 -2.09 t-2.08 -5.35 q0.02 -3.26 2.04 -5.32 t5.28 -2.12 z M134.06799999999998 5.84 l0 8.5 q0 2.3 0.95 3.54 t2.89 1.28 q3.8 0 3.84 -5.02 l0 -8.3 l1.32 0 l0 8.64 q0 2.78 -1.3 4.32 t-3.86 1.56 q-2.52 0 -3.83 -1.53 t-1.33 -4.25 l0 -8.74 l1.32 0 z M161.576 12.08 q1.54 0 2.38 -0.69 t0.84 -1.83 t-0.82 -1.82 t-2.44 -0.7 l-2.86 0 l0 5.04 l2.9 0 z M161.176 5.84 q4.9 0 4.94 3.72 q0 3.14 -3.62 3.64 l4.12 6.8 l-1.5 0 l-3.98 -6.72 l-2.46 0 l0 6.72 l-1.32 0 l0 -14.16 l3.82 0 z M204.23199999999997 5.84 l0 1.2 l-7.16 0 l0 5.04 l6.66 0 l0 1.2 l-6.66 0 l0 6.72 l-1.32 0 l0 -14.16 l8.48 0 z M218.6 5.84 l0 8.5 q0 2.3 0.95 3.54 t2.89 1.28 q3.8 0 3.84 -5.02 l0 -8.3 l1.32 0 l0 8.64 q0 2.78 -1.3 4.32 t-3.86 1.56 q-2.52 0 -3.83 -1.53 t-1.33 -4.25 l0 -8.74 l1.32 0 z M243.58799999999997 5.84 l8.62 12.4 l0.04 0 l0 -12.4 l1.32 0 l0 14.16 l-1.7 0 l-8.62 -12.4 l-0.04 0 l0 12.4 l-1.32 0 l0 -14.16 l1.7 0 z M272.07599999999996 18.8 q3.04 0 4.8 -1.54 t1.78 -4.24 q0 -2.88 -1.75 -4.42 t-4.89 -1.56 l-2.76 0 l0 11.76 l2.82 0 z M272.356 5.84 q3.56 0 5.57 1.92 t2.05 5.26 q0 1.96 -0.89 3.55 t-2.56 2.51 t-4.09 0.92 l-4.5 0 l0 -14.16 l4.42 0 z M294.924 5.84 l0 14.16 l-1.32 0 l0 -14.16 l1.32 0 z M311.17199999999997 5.84 l8.62 12.4 l0.04 0 l0 -12.4 l1.32 0 l0 14.16 l-1.7 0 l-8.62 -12.4 l-0.04 0 l0 12.4 l-1.32 0 l0 -14.16 l1.7 0 z M342.09999999999997 5.48 q3.2 -0.02 5.1 1.96 l-0.96 1 q-0.6 -0.74 -1.77 -1.25 t-2.37 -0.51 q-2.66 0 -4.32 1.76 t-1.68 4.48 q0 2.7 1.64 4.44 t4.38 1.8 q2.6 0 3.94 -0.84 l0 -4.76 l-3.4 0 l0 -1.2 l4.72 0 l0 6.72 q-2.3 1.28 -5.28 1.28 q-3.2 0 -5.23 -2.09 t-2.09 -5.35 q0.02 -3.28 2.06 -5.34 t5.26 -2.1 z M379.496 5.84 l8.62 12.4 l0.04 0 l0 -12.4 l1.32 0 l0 14.16 l-1.7 0 l-8.62 -12.4 l-0.04 0 l0 12.4 l-1.32 0 l0 -14.16 l1.7 0 z M412.684 5.84 l0 1.2 l-7.34 0 l0 5.04 l6.88 0 l0 1.2 l-6.88 0 l0 5.52 l7.66 0 l0 1.2 l-8.98 0 l0 -14.16 l8.66 0 z M435.21200000000005 5.84 l0 1.2 l-7.34 0 l0 5.04 l6.88 0 l0 1.2 l-6.88 0 l0 5.52 l7.66 0 l0 1.2 l-8.98 0 l0 -14.16 l8.66 0 z M453.04 18.8 q3.04 0 4.8 -1.54 t1.78 -4.24 q0 -2.88 -1.75 -4.42 t-4.89 -1.56 l-2.76 0 l0 11.76 l2.82 0 z M453.32000000000005 5.84 q3.56 0 5.57 1.92 t2.05 5.26 q0 1.96 -0.89 3.55 t-2.56 2.51 t-4.09 0.92 l-4.5 0 l0 -14.16 l4.42 0 z M478.60800000000006 5.48 q2.46 0 3.86 1.78 l-1.14 0.82 q-1.04 -1.4 -2.76 -1.4 q-1.4 0 -2.27 0.72 t-0.91 1.96 q0 1.08 0.66 1.75 t2.3 1.13 q2.16 0.64 2.88 1.13 t1.09 1.21 t0.37 1.8 q0 1.72 -1.23 2.83 t-3.17 1.15 q-3.06 0 -4.6 -2.14 l1.26 -0.84 q1.06 1.76 3.24 1.78 q1.42 0 2.3 -0.79 t0.88 -1.99 q0 -0.7 -0.25 -1.15 t-0.76 -0.78 t-1.3 -0.6 t-1.85 -0.63 q-1.6 -0.52 -2.37 -1.46 t-0.77 -2.4 q0 -1.72 1.29 -2.8 t3.25 -1.08 z"></path></g>
			</g>
		</svg>
	